<svg xmlns="http://www.w3.org/2000/svg" width="825.51" height="1350.813" viewBox="0 0 825.51 1350.813">
  <path id="Path_1" data-name="Path 1" d="M150.343,510.538v360.2l84.568-360.2L335.139,820.62l18.793-332.007L504.274,789.3l103.361-322.61S426.69,1112.325,595.106,820.62,701.6,1033.605,701.6,1033.605L551.256,1306.1l-306.949-62.643V952.17c-12.529,0,0,563.785,0,563.785l485.481-166C704.731,1384.4,400.914,1656.9,416.574,1656.9s350.8-551.256,350.8-551.256c9.4,281.892-570.049-404.046-447.9,0s504.274-72.039,504.274-72.039S519.935,1666.3,754.845,1472.1,1030.473,801.827,905.188,689.07s42.284-21.142,56.378-28.189S607.635,366.46,607.635,366.46l62.643-59.511" transform="translate(-149.843 -306.587)" fill="none" stroke="#707070" stroke-width="1"/>
</svg>
